<svg version="1.1" viewBox="0.0 0.0 100.0 100.0" fill="none" stroke="none" stroke-linecap="square" stroke-miterlimit="10" xmlns:xlink="http://www.w3.org/1999/xlink" xmlns="http://www.w3.org/2000/svg"><clipPath id="p.0"><path d="m0 0l100.0 0l0 100.0l-100.0 0l0 -100.0z" clip-rule="nonzero"/></clipPath><g clip-path="url(#p.0)"><path fill="#000000" fill-opacity="0.0" d="m0 0l100.0 0l0 100.0l-100.0 0z" fill-rule="evenodd"/><path fill="#000000" fill-opacity="0.0" d="m2.8503938 -41.133858l94.29921 0l0 89.6693l-94.29921 0z" fill-rule="evenodd"/><path fill="#999999" d="m49.05352 47.069267l13.859375 -21.328125l20.53125 0l-24.0 33.71875q8.0 10.0 14.53125 19.46875q6.53125 9.46875 10.40625 16.9375l-21.328125 0q-1.078125 -2.0 -2.671875 -5.0q-1.59375 -3.0 -3.59375 -6.265625q-2.0 -3.265625 -4.203125 -6.53125q-2.203125 -3.265625 -4.328125 -5.9375q-2.0 2.53125 -4.078125 5.609375q-2.0625 3.0625 -3.9375 6.203125q-1.859375 3.125 -3.65625 6.1875q-1.796875 3.0625 -3.140625 5.734375l-20.265627 0q1.609375 -3.328125 4.40625 -7.859375q2.796875 -4.546875 6.0625 -9.40625q3.265625 -4.859375 6.859375 -9.71875q3.609377 -4.875 7.078127 -9.140625q-6.000002 -8.40625 -12.000002 -17.0q-6.0 -8.609375 -11.875 -17.0l21.468752 0l13.875 21.328125z" fill-rule="nonzero"/><path fill="#6d9eeb" d="m15.51706 12.43832l0 0c0 -5.183649 4.202178 -9.385827 9.385827 -9.385827l0 0c2.489275 0 4.8765984 0.9888613 6.6367817 2.7490451c1.7601852 1.7601838 2.7490463 4.1475058 2.7490463 6.6367817l0 0c0 5.183649 -4.202179 9.385826 -9.385828 9.385826l0 0c-5.183649 0 -9.385827 -4.202177 -9.385827 -9.385826z" fill-rule="evenodd"/><path stroke="#6d9eeb" stroke-width="1.0" stroke-linejoin="round" stroke-linecap="butt" d="m15.51706 12.43832l0 0c0 -5.183649 4.202178 -9.385827 9.385827 -9.385827l0 0c2.489275 0 4.8765984 0.9888613 6.6367817 2.7490451c1.7601852 1.7601838 2.7490463 4.1475058 2.7490463 6.6367817l0 0c0 5.183649 -4.202179 9.385826 -9.385828 9.385826l0 0c-5.183649 0 -9.385827 -4.202177 -9.385827 -9.385826z" fill-rule="evenodd"/></g></svg>